<svg id="Layer_1" data-name="Layer 1" xmlns="http://www.w3.org/2000/svg" viewBox="0 0 1067.79 330.14">
  <defs>
    <style>
      .cls-1 {
        fill: none;
        stroke: #ccc;
        stroke-miterlimit: 10;
      }
    </style>
  </defs>
  <g>
    <path class="cls-1" d="M260.17,479.6q-4.16-8.25-6-20.52-21.79,24.75-56.66,24.75-33,0-54.69-19.46T121.11,415.3q0-36.39,26.47-55.85t76.48-19.67h27.6V326.67q0-15.87-8-25.39t-25.22-9.52q-15.15,0-23.76,7.41t-8.61,20.3h-60a62.22,62.22,0,0,1,12-36.8q12-16.92,34-26.55t49.4-9.63q41.51,0,65.89,21.26t24.39,59.76v99.21q.21,32.58,8.92,49.29v3.59Zm-49.6-42.52a51,51,0,0,0,24.49-6,39.22,39.22,0,0,0,16.6-16.19V375.53H229.25q-45,0-47.95,31.73l-.21,3.59A24.68,24.68,0,0,0,189,429.68Q196.87,437.09,210.57,437.08Z" transform="translate(-120.61 -154.19)"/>
    <path class="cls-1" d="M560.28,367.28q0,55-23,85.77t-64.34,30.78q-36.54,0-58.32-28.55l-2.7,24.32h-54V154.69h60V271.24q20.74-24.75,54.58-24.75,41.1,0,64.45,30.78t23.34,86.62Zm-60-4.44q0-34.69-10.79-50.67t-32.17-16q-28.63,0-39.43,23.91v90.32q11,24.12,39.85,24.12,29.06,0,38.18-29.2Q500.31,391.4,500.3,362.84Z" transform="translate(-120.61 -154.19)"/>
    <path class="cls-1" d="M587.89,363.05q0-34.07,12.87-60.71t37-41.25q24.18-14.59,56.14-14.6,45.46,0,74.2,28.35t32.07,77l.41,15.65q0,52.67-28.85,84.51t-77.41,31.83q-48.57,0-77.52-31.73t-29-86.3Zm60,4.34q0,32.63,12,49.89t34.45,17.27q21.79,0,34-17.06t12.24-54.55q0-32-12.24-49.58t-34.46-17.58q-22,0-34,17.48T647.87,367.39Z" transform="translate(-120.61 -154.19)"/>
    <path class="cls-1" d="M972.06,456.33q-22.21,27.51-61.44,27.5-36.11,0-55.1-21.15t-19.41-62v-150h60v148q0,35.79,32,35.79,30.51,0,41.92-21.61V250.73h60.19V479.6H973.72Z" transform="translate(-120.61 -154.19)"/>
    <path class="cls-1" d="M1147.23,194.46v56.27h38.39v44.84h-38.39V409.8q0,12.69,4.77,18.19t18.27,5.5a93.66,93.66,0,0,0,17.64-1.48v46.32a121.23,121.23,0,0,1-36.32,5.5q-63.1,0-64.34-64.94V295.57h-32.8V250.73h32.8V194.46Z" transform="translate(-120.61 -154.19)"/>
  </g>
</svg>
